# xmcd
#
# Track frame offsets:
#   150
#   17965
#   32402
#   51190
#   67510
#   87475
#   105196
#   123262
#   139934
#   156478
#   172576
#   185376
#   201686
#   220061
#   235783
#
# Disc length: 3407 seconds
#
# Revision: 0
# Processed by: cddbd v1.5.2PL0 Copyright (c) Steve Scherf et al.
# Submitted via: uFREEDB ActiveX Control 1.5
#
DISCID=c30d4d0f
DTITLE=ENIO MEDEIROS  - MOSTRANDO A CARA
DYEAR=1900
DGENRE=Country
TTITLE0=MOSTRANDO A CARA
TTITLE1=NAS FERRARIAS
TTITLE2=ASSIM RECORRO MEUS DIAS
TTITLE3=LACO DE ESTRELAS
TTITLE4=CRIOULO DO RECULUTA
TTITLE5=NO LOMBO DO CAVALO
TTITLE6=QUEIMADAS
TTITLE7=ORACAO DO PALANQUE
TTITLE8=AO SOM DE UM BANDONEON
TTITLE9=POEMA DO MATE DA SAUDADE LONGA
TTITLE10=DAQUI A 200 ANOS
TTITLE11=DOMAS
TTITLE12=LIVRANDO O TIRAO
TTITLE13=COZINHEIRA ALMA DA ESTANCIA
TTITLE14=OS GOLPES DO CONHAQUE
EXTD=
EXTT0=
EXTT1=
EXTT2=
EXTT3=
EXTT4=
EXTT5=
EXTT6=
EXTT7=
EXTT8=
EXTT9=
EXTT10=
EXTT11=
EXTT12=
EXTT13=
EXTT14=
PLAYORDER=
